<svg xmlns="http://www.w3.org/2000/svg" version="1.1" xmlns:xlink="http://www.w3.org/1999/xlink" xmlns:svgjs="http://svgjs.dev/svgjs" width="1500" height="1500" viewBox="0 0 1500 1500"><g transform="matrix(1,0,0,1,-0.323615160350073,-0.3236151603499593)"><svg viewBox="0 0 343 343" data-background-color="#ffffff" preserveAspectRatio="xMidYMid meet" height="1500" width="1500" xmlns="http://www.w3.org/2000/svg" xmlns:xlink="http://www.w3.org/1999/xlink"><g id="tight-bounds" transform="matrix(1,0,0,1,0.0740000000000407,0.07400000000001228)"><svg viewBox="0 0 342.85155851775386 342.85155851775386" height="342.85155851775386" width="342.85155851775386"><g><svg></svg></g><g><svg viewBox="0 0 342.85155851775386 342.85155851775386" height="342.85155851775386" width="342.85155851775386"><g><path d="M0 171.426c0-94.676 76.75-171.426 171.426-171.426 94.676 0 171.426 76.75 171.426 171.426 0 94.676-76.75 171.426-171.426 171.426-94.676 0-171.426-76.75-171.426-171.426zM171.426 339.264c92.695 0 167.838-75.144 167.838-167.838 0-92.695-75.144-167.838-167.838-167.839-92.695 0-167.838 75.144-167.839 167.839 0 92.695 75.144 167.838 167.839 167.838z" data-fill-palette-color="tertiary" fill="#034620" stroke="transparent"></path><ellipse rx="164.56874808852186" ry="164.56874808852186" cx="171.42577925887693" cy="171.42577925887693" fill="#034620" stroke="transparent" stroke-width="0" fill-opacity="1" data-fill-palette-color="tertiary"></ellipse></g><g transform="matrix(1,0,0,1,64.84655864529837,119.35306464738758)"><svg viewBox="0 0 213.1584412271571 104.14542922297869" height="104.14542922297869" width="213.1584412271571"><g><svg viewBox="0 0 213.1584412271571 104.14542922297869" height="104.14542922297869" width="213.1584412271571"><g transform="matrix(1,0,0,1,0,64.36605336720572)"><svg viewBox="0 0 213.1584412271571 39.779375855772976" height="39.779375855772976" width="213.1584412271571"><g id="textblocktransform"><svg viewBox="0 0 213.1584412271571 39.779375855772976" height="39.779375855772976" width="213.1584412271571" id="textblock"><g><svg viewBox="0 0 213.1584412271571 39.779375855772976" height="39.779375855772976" width="213.1584412271571"><g transform="matrix(1,0,0,1,0,0)"><svg width="213.1584412271571" viewBox="2.05 -35.5 195.01999999999998 36.4" height="39.779375855772976" data-palette-color="#ffffff"><path d="M2.05-35L2.05 0 20.1 0 20.1-2.5 4.9-2.5 4.9-35 2.05-35ZM41.85-9.25L41.85-9.25 41.85-15.8Q41.85-20.4 39.5-23 37.15-25.6 32.7-25.6L32.7-25.6Q29.75-25.6 27.65-24.48 25.55-23.35 24.45-21.18 23.35-19 23.35-15.8L23.35-15.8 23.35-9.25Q23.35-6.55 24.4-4.35 25.45-2.15 27.57-0.83 29.7 0.5 32.8 0.5L32.8 0.5Q37.35 0.5 39.6-2.18 41.85-4.85 41.85-9.25ZM39.05-15.8L39.05-15.8 39.05-8.75Q39.05-6.7 38.37-5.18 37.7-3.65 36.3-2.83 34.9-2 32.8-2L32.8-2Q30.8-2 29.3-2.85 27.8-3.7 26.97-5.23 26.15-6.75 26.15-8.75L26.15-8.75 26.15-15.8Q26.15-18.2 26.9-19.83 27.65-21.45 29.12-22.28 30.6-23.1 32.8-23.1L32.8-23.1Q35-23.1 36.37-22.28 37.75-21.45 38.4-19.83 39.05-18.2 39.05-15.8ZM48.7-6.6L48.7-6.6 48.7-22.4 53.55-22.4 54.75-25 48.7-25 48.7-35 45.9-35 45.9-6.6Q45.9-3.7 47.15-1.95 48.4-0.2 51.15 0.65L51.15 0.65 52-1.5Q50.9-1.9 50.17-2.58 49.45-3.25 49.07-4.28 48.7-5.3 48.7-6.6ZM74.19-2.4L74.19-2.4 74.19 0 76.99 0 76.99-25.05 74.19-25.05 74.19-8.65Q74.19-7.3 73.69-6.15 73.19-5 72.27-4.1 71.34-3.2 70.09-2.7 68.84-2.2 67.34-2.2L67.34-2.2Q65.44-2.2 64.09-2.83 62.74-3.45 62.04-4.85 61.34-6.25 61.34-8.55L61.34-8.55 61.34-25.05 58.49-25.05 58.49-7.85Q58.49-6.15 58.87-4.8 59.24-3.45 59.97-2.45 60.69-1.45 61.77-0.8 62.84-0.15 64.22 0.18 65.59 0.5 67.24 0.5L67.24 0.5Q68.49 0.5 69.79 0.18 71.09-0.15 72.24-0.8 73.39-1.45 74.19-2.4ZM95.94-21.95L95.94-21.95 97.09-23.85Q95.89-24.6 94.74-24.98 93.59-25.35 92.54-25.48 91.49-25.6 90.49-25.6L90.49-25.6Q88.99-25.6 87.54-25.2 86.09-24.8 84.92-23.98 83.74-23.15 83.04-21.98 82.34-20.8 82.34-19.2L82.34-19.2Q82.34-17.55 83.12-16.38 83.89-15.2 85.14-14.35 86.39-13.5 87.92-12.85 89.44-12.2 90.97-11.6 92.49-11 93.74-10.28 94.99-9.55 95.77-8.58 96.54-7.6 96.54-6.25L96.54-6.25Q96.54-5.05 95.97-4.2 95.39-3.35 94.47-2.78 93.54-2.2 92.49-1.95 91.44-1.7 90.49-1.7L90.49-1.7Q88.94-1.7 87.57-2.08 86.19-2.45 84.99-3.2 83.79-3.95 82.64-5.05L82.64-5.05 81.09-3.4Q82.84-1.4 85.34-0.25 87.84 0.9 90.49 0.9L90.49 0.9Q92.09 0.9 93.62 0.45 95.14 0 96.39-0.9 97.64-1.8 98.39-3.15 99.14-4.5 99.14-6.3L99.14-6.3Q99.14-8.15 98.37-9.43 97.59-10.7 96.34-11.6 95.09-12.5 93.57-13.18 92.04-13.85 90.54-14.43 89.04-15 87.79-15.68 86.54-16.35 85.77-17.2 84.99-18.05 84.99-19.3L84.99-19.3Q84.99-20.35 85.54-21.1 86.09-21.85 86.99-22.33 87.89-22.8 88.97-23.03 90.04-23.25 91.04-23.25L91.04-23.25Q91.89-23.25 92.77-23.1 93.64-22.95 94.47-22.68 95.29-22.4 95.94-21.95ZM129.94-23.05L129.94-23.05 130.14-25.45Q130.14-25.45 129.46-25.55 128.79-25.65 127.89-25.6L127.89-25.6Q125.19-25.45 123.21-24.85 121.24-24.25 119.39-23.4L119.39-23.4 119.39-25.05 116.54-25.05 116.54 0 119.39 0 119.39-20.45Q120.09-20.9 121.09-21.38 122.09-21.85 123.24-22.23 124.39-22.6 125.59-22.83 126.79-23.05 127.84-23.1L127.84-23.1Q128.69-23.15 129.31-23.1 129.94-23.05 129.94-23.05ZM135.43-6.7L135.43-6.7 135.43-9.8 150.68-10.6 150.68-17.1Q150.68-19.9 149.61-21.75 148.53-23.6 146.56-24.55 144.58-25.5 141.88-25.5L141.88-25.5Q139.23-25.5 137.13-24.55 135.03-23.6 133.83-21.7 132.63-19.8 132.63-16.95L132.63-16.95 132.63-6.7Q132.63-4.6 133.26-3.2 133.88-1.8 135.03-0.95 136.18-0.1 137.78 0.25 139.38 0.6 141.28 0.6L141.28 0.6Q143.18 0.6 145.38-0.03 147.58-0.65 149.43-1.75L149.43-1.75 148.33-3.9Q146.48-2.95 144.68-2.38 142.88-1.8 141.03-1.8L141.03-1.8Q139.83-1.8 138.81-2.08 137.78-2.35 137.03-2.93 136.28-3.5 135.86-4.42 135.43-5.35 135.43-6.7ZM147.88-17.45L147.88-17.45 147.88-13.1 135.43-12.55 135.43-16.9Q135.43-18.9 136.21-20.3 136.98-21.7 138.43-22.43 139.88-23.15 141.83-23.15L141.83-23.15Q143.58-23.15 144.93-22.45 146.28-21.75 147.08-20.48 147.88-19.2 147.88-17.45ZM157.48-6.6L157.48-6.6 157.48-22.4 162.33-22.4 163.53-25 157.48-25 157.48-35 154.68-35 154.68-6.6Q154.68-3.7 155.93-1.95 157.18-0.2 159.93 0.65L159.93 0.65 160.78-1.5Q159.68-1.9 158.96-2.58 158.23-3.25 157.86-4.28 157.48-5.3 157.48-6.6ZM180.53-17.5L180.53-17.5Q179.38-18.2 177.95-18.8 176.53-19.4 174.98-19.78 173.43-20.15 171.78-20.15L171.78-20.15Q170.28-20.15 168.9-19.75 167.53-19.35 166.43-18.48 165.33-17.6 164.7-16.15 164.08-14.7 164.08-12.6L164.08-12.6 164.08-8.45Q164.08-5.7 164.95-3.9 165.83-2.1 167.35-1.13 168.88-0.15 170.95 0.2 173.03 0.55 175.43 0.5L175.43 0.5Q176.18 0.5 177.2 0.45 178.23 0.4 179.3 0.33 180.38 0.25 181.3 0.18 182.23 0.1 182.8 0.05 183.38 0 183.33 0L183.33 0 183.33-14.4Q183.33-17.5 182.83-19.63 182.33-21.75 181.15-23.03 179.98-24.3 177.98-24.88 175.98-25.45 172.93-25.45L172.93-25.45 172.83-23.3Q174.33-23.3 175.73-23.08 177.13-22.85 178.2-22.25 179.28-21.65 179.9-20.5 180.53-19.35 180.53-17.5ZM180.53-15.15L180.53-15.15 180.53-2.3Q180.53-2.3 180.3-2.27 180.08-2.25 179.63-2.23 179.18-2.2 178.53-2.13 177.88-2.05 177.05-2 176.23-1.95 175.23-1.9L175.23-1.9Q172.73-1.8 171.08-2.18 169.43-2.55 168.5-3.43 167.58-4.3 167.2-5.65 166.83-7 166.83-8.8L166.83-8.8 166.83-12.5Q166.83-14.2 167.3-15.25 167.78-16.3 168.53-16.82 169.28-17.35 170.08-17.55 170.88-17.75 171.53-17.75L171.53-17.75Q173.13-17.75 174.68-17.4 176.23-17.05 177.73-16.45 179.23-15.85 180.53-15.15ZM187.28-25.05L187.28 0 190.13 0 190.13-25.05 187.28-25.05ZM188.73-35.5L188.73-35.5Q188.08-35.5 187.55-35 187.03-34.5 187.03-33.8L187.03-33.8Q187.03-33.15 187.55-32.65 188.08-32.15 188.73-32.15L188.73-32.15Q189.43-32.15 189.93-32.65 190.43-33.15 190.43-33.8L190.43-33.8Q190.43-34.5 189.93-35 189.43-35.5 188.73-35.5ZM194.27-35L194.27 0 197.07 0 197.07-35 194.27-35Z" opacity="1" transform="matrix(1,0,0,1,0,0)" fill="#ffffff" class="wordmark-text-0" data-fill-palette-color="quaternary" id="text-0"></path></svg></g></svg></g></svg></g></svg></g><g transform="matrix(1,0,0,1,56.950031953416826,0)"><svg viewBox="0 0 99.25837732032346 54.975097432678254" height="54.975097432678254" width="99.25837732032346"><g><svg xmlns="http://www.w3.org/2000/svg" xmlns:xlink="http://www.w3.org/1999/xlink" version="1.1" x="0" y="0" viewBox="1.0720000000000027 22.901 97.856 54.198378813015964" enable-background="new 0 0 100 100" xml:space="preserve" height="54.975097432678254" width="99.25837732032346" class="icon-icon-0" data-fill-palette-color="quaternary" id="icon-0"><g fill="#ffffff" data-fill-palette-color="quaternary"><g fill="#ffffff" data-fill-palette-color="quaternary"><path d="M23.702 61.297c-1.438-1.412-2.75-2.909-3.936-4.468-7.164 0.122-13.735 2.287-18.694 5.934 4.583 6.779 12.729 12.054 22.627 13.766 9.032 1.562 17.678-0.168 24.132-4.164l-2.527-0.3C37.5 71.138 29.828 67.313 23.702 61.297z" fill="#ffffff" data-fill-palette-color="quaternary"></path><path d="M45.567 69.839c-4.812-6.156-7.518-14.323-7.518-23.042 0-0.567 0.016-1.131 0.039-1.692-7.034-6.54-15.71-9.828-23.594-9.6-0.089 8.184 3.61 17.155 10.776 24.193C31.261 65.58 38.556 69.007 45.567 69.839z" fill="#ffffff" data-fill-palette-color="quaternary"></path><path d="M80.232 56.829c-1.185 1.559-2.497 3.056-3.935 4.468-6.126 6.017-13.798 9.841-21.602 10.768l-2.527 0.3C58.624 76.36 67.27 78.09 76.3 76.528c9.899-1.712 18.044-6.986 22.628-13.766C93.968 59.116 87.398 56.951 80.232 56.829z" fill="#ffffff" data-fill-palette-color="quaternary"></path><path d="M61.95 46.796c0 8.719-2.706 16.886-7.519 23.042 7.012-0.832 14.307-4.259 20.296-10.142 7.167-7.038 10.866-16.009 10.777-24.193-7.885-0.228-16.559 3.06-23.594 9.6C61.934 45.666 61.95 46.229 61.95 46.796z" fill="#ffffff" data-fill-palette-color="quaternary"></path><path d="M50 22.901c-5.9 5.671-9.709 14.596-9.709 24.642 0 10.045 3.809 18.97 9.709 24.642 5.9-5.672 9.71-14.597 9.71-24.642C59.71 37.498 55.9 28.573 50 22.901z" fill="#ffffff" data-fill-palette-color="quaternary"></path><path d="M18.225 54.646c-2.085-3.157-3.659-6.525-4.665-9.978-3.384 0.064-6.626 0.644-9.574 1.714 1.094 3.428 2.932 6.77 5.412 9.817C12.201 55.346 15.171 54.815 18.225 54.646z" fill="#ffffff" data-fill-palette-color="quaternary"></path><path d="M91.231 56.2c2.481-3.048 4.32-6.39 5.413-9.817-2.947-1.071-6.19-1.65-9.575-1.714-1.005 3.453-2.579 6.821-4.663 9.978C85.459 54.815 88.429 55.346 91.231 56.2z" fill="#ffffff" data-fill-palette-color="quaternary"></path><path d="M41.59 31.027c-2.759-2.499-5.81-4.459-8.963-5.705-1.523 3.451-2.338 7.442-2.422 11.619 2.878 1.431 5.637 3.248 8.176 5.424C38.887 38.342 39.975 34.509 41.59 31.027z" fill="#ffffff" data-fill-palette-color="quaternary"></path><path d="M69.97 36.941c-0.084-4.177-0.897-8.168-2.423-11.619-3.152 1.246-6.202 3.207-8.962 5.705 1.615 3.482 2.703 7.314 3.209 11.338C64.333 40.189 67.092 38.372 69.97 36.941z" fill="#ffffff" data-fill-palette-color="quaternary"></path></g></g></svg></g></svg></g><g></g></svg></g></svg></g></svg></g><defs></defs></svg><rect width="342.85155851775386" height="342.85155851775386" fill="none" stroke="none" visibility="hidden"></rect></g></svg></g></svg>